<?xml version="1.0" standalone="no"?>
<!DOCTYPE svg PUBLIC "-//W3C//DTD SVG 20010904//EN"
 "http://www.w3.org/TR/2001/REC-SVG-20010904/DTD/svg10.dtd">
<svg version="1.0" xmlns="http://www.w3.org/2000/svg"
 width="96.000000pt" height="96.000000pt" viewBox="0 0 96.000000 96.000000"
 preserveAspectRatio="xMidYMid meet">
<metadata>
Created by potrace 1.14, written by Peter Selinger 2001-2017
</metadata>
<g transform="translate(0.000000,96.000000) scale(0.100000,-0.100000)"
fill="#000000" stroke="none">
<path d="M389 633 l-101 -208 -29 58 c-16 31 -34 57 -39 57 -6 0 -57 -94 -115
-210 l-105 -210 481 0 481 0 -37 68 c-82 148 -97 172 -105 172 -5 0 -17 -14
-25 -31 -9 -17 -18 -29 -20 -27 -5 5 -101 199 -191 386 -40 83 -78 152 -84
152 -5 0 -56 -93 -111 -207z"/>
</g>
</svg>
